<svg xmlns="http://www.w3.org/2000/svg" viewBox="0 0 64 64" width="64" height="64">
  <defs>
    <linearGradient id="grad1" x1="0%" y1="0%" x2="100%" y2="100%">
      <stop offset="0%" style="stop-color:#38bdf8;stop-opacity:1" />
      <stop offset="100%" style="stop-color:#0284c7;stop-opacity:1" />
    </linearGradient>
  </defs>
  
  <!-- Background circle with gradient -->
  <circle cx="32" cy="32" r="30" fill="url(#grad1)" opacity="0.2"/>
  
  <!-- Metal gear/cog icon representing metalworking -->
  <g transform="translate(32, 32)">
    <!-- Outer gear -->
    <path d="M 0,-20 L 3,-20 L 4,-16 L 7,-16 L 7,-12 L 4,-12 L 3,-8 L 0,-8 L -3,-8 L -4,-12 L -7,-12 L -7,-16 L -4,-16 L -3,-20 Z" 
          fill="url(#grad1)" 
          transform="rotate(0)"/>
    <path d="M 0,-20 L 3,-20 L 4,-16 L 7,-16 L 7,-12 L 4,-12 L 3,-8 L 0,-8 L -3,-8 L -4,-12 L -7,-12 L -7,-16 L -4,-16 L -3,-20 Z" 
          fill="url(#grad1)" 
          transform="rotate(45)"/>
    <path d="M 0,-20 L 3,-20 L 4,-16 L 7,-16 L 7,-12 L 4,-12 L 3,-8 L 0,-8 L -3,-8 L -4,-12 L -7,-12 L -7,-16 L -4,-16 L -3,-20 Z" 
          fill="url(#grad1)" 
          transform="rotate(90)"/>
    <path d="M 0,-20 L 3,-20 L 4,-16 L 7,-16 L 7,-12 L 4,-12 L 3,-8 L 0,-8 L -3,-8 L -4,-12 L -7,-12 L -7,-16 L -4,-16 L -3,-20 Z" 
          fill="url(#grad1)" 
          transform="rotate(135)"/>
    
    <!-- Center circle -->
    <circle cx="0" cy="0" r="8" fill="url(#grad1)"/>
    <circle cx="0" cy="0" r="5" fill="#0f172a"/>
  </g>
  
  <!-- Letter S stylized -->
  <path d="M 20 18 Q 20 14, 24 14 Q 28 14, 28 18 Q 28 20, 26 22 L 22 26 Q 20 28, 20 30 Q 20 34, 24 34 Q 28 34, 28 30" 
        stroke="url(#grad1)" 
        stroke-width="2.5" 
        fill="none" 
        stroke-linecap="round"/>
  
  <path d="M 44 18 Q 44 14, 40 14 Q 36 14, 36 18 Q 36 20, 38 22 L 42 26 Q 44 28, 44 30 Q 44 34, 40 34 Q 36 34, 36 30" 
        stroke="url(#grad1)" 
        stroke-width="2.5" 
        fill="none" 
        stroke-linecap="round"/>
</svg>

